<svg width="34" height="37" viewBox="0 0 34 37" fill="none" xmlns="http://www.w3.org/2000/svg">
<path d="M21.0613 0.0186438C16.8122 0.244336 12.6957 2.00958 10.1229 4.71386C8.40639 6.5194 7.22451 8.74005 6.77427 11.001C6.55317 12.1134 6.45267 13.4554 6.52503 14.4348C6.65769 16.2927 7.22451 17.5904 8.40237 18.731C9.12597 19.4282 9.98625 20.0207 11.1721 20.6292C12.358 21.2418 13.0093 21.4998 15.4936 22.3461C17.4152 23.003 17.8936 23.1844 18.6654 23.5511C19.9558 24.1678 20.6714 24.8489 20.8402 25.6267C20.9206 25.9854 20.8724 26.7028 20.7478 27.0937C20.4744 27.928 19.8714 28.5607 19.0312 28.8952C18.3398 29.1693 17.6283 29.27 16.4383 29.266C14.8143 29.262 13.7731 29.0887 12.0967 28.5365C9.78123 27.7788 7.67877 26.6141 6.50493 25.4413L6.13509 25.0746L3.57837 28.6695C2.17539 30.6443 1.01361 32.2887 1.00155 32.3209C0.937226 32.4862 2.89497 33.7919 4.16127 34.4328C4.36227 34.5335 4.75221 34.7149 5.03361 34.8358C8.67573 36.4317 12.8083 37.1129 16.6996 36.7622C19.4734 36.5123 21.9498 35.8191 23.9397 34.731C25.825 33.7033 27.2521 32.4055 28.3898 30.6887C29.5516 28.9234 30.1264 27.1018 30.2913 24.6554C30.4239 22.6443 30.1626 21.1209 29.4591 19.8474C29.0893 19.1783 28.8722 18.8841 28.3215 18.3159C26.9627 16.9134 25.1818 15.9904 21.4553 14.7652C19.0996 13.9955 17.4916 13.3708 16.8484 12.9799C15.968 12.4479 15.5861 11.6579 15.6946 10.5899C15.767 9.91688 15.968 9.39295 16.3499 8.91738C17.1177 7.95819 18.376 7.48262 20.1367 7.47859C21.3146 7.47859 22.0905 7.60353 23.3728 7.99849C25.1537 8.55063 27.3165 9.72746 28.2973 10.6786C28.4863 10.864 28.5466 10.9003 28.5828 10.864C28.6591 10.7834 33.5917 4.04887 33.6078 4.00051C33.6359 3.92796 32.1163 2.95668 31.0711 2.38036C29.0812 1.2801 26.4481 0.425697 24.1567 0.13552C23.2442 0.0186438 21.9699 -0.0297189 21.0613 0.0186438Z" fill="white"/>
<path d="M11.5261 12.0109C9.22019 12.2125 7.10854 12.9785 5.25718 14.2833C3.07588 15.8227 1.40416 18.0914 0.586629 20.635C0.161366 21.9472 -0.0036064 23.0577 5.96555e-05 24.5421C5.96555e-05 25.6307 0.0440523 26.0815 0.234687 27.0234C1.26485 32.0594 5.31951 35.9847 10.375 36.8351C11.1522 36.967 11.6031 37 12.4976 37C13.3995 37 13.8504 36.967 14.624 36.8351C18.9609 36.102 22.6416 33.0709 24.207 28.9476C24.559 28.0167 24.7826 27.1114 24.9292 26.0265C25.0136 25.4144 25.0246 23.7284 24.9512 23.131C24.592 20.2025 23.3858 17.6882 21.3695 15.6687C19.3898 13.6859 16.9482 12.4764 14.1107 12.0769C13.7258 12.0256 11.9184 11.9779 11.5261 12.0109ZM10.353 14.7708L12.186 16.2185V18.7291L12.1824 21.2435L10.661 22.343C9.82509 22.9478 9.11754 23.4389 9.08821 23.4316C9.02222 23.4206 4.74394 21.6393 4.71827 21.6136C4.69261 21.5916 3.09421 17.2667 3.09421 17.2264C3.09421 17.1605 3.68445 16.4861 4.12071 16.0572C5.26452 14.9247 6.51464 14.0964 8.05805 13.4513C8.24135 13.3743 8.42099 13.3157 8.45765 13.3194C8.49065 13.323 9.34484 13.9754 10.353 14.7708ZM16.9116 13.444C17.3772 13.6236 18.3487 14.1184 18.8143 14.4079C19.8371 15.0457 20.8453 15.929 21.6555 16.8929C21.8424 17.1165 21.9047 17.2154 21.8901 17.2704C21.8534 17.4097 20.3137 21.5733 20.288 21.6026C20.2733 21.621 19.2725 22.0461 18.0664 22.5446L15.8741 23.4572L14.7009 22.6032C14.0521 22.1341 13.3628 21.6393 13.1685 21.4963L12.8129 21.2435V18.7328L12.8093 16.2185L14.6533 14.7634C15.6651 13.9644 16.5083 13.3084 16.5303 13.3084C16.5486 13.3084 16.7209 13.3707 16.9116 13.444ZM6.81526 23.1677C7.98106 23.6515 8.94157 24.0546 8.9489 24.062C8.9709 24.084 10.0964 27.5622 10.0964 27.6098C10.0964 27.6355 9.48415 28.4089 8.73994 29.3251L7.3835 30.9928L7.20753 31.0184C6.96923 31.0514 2.74227 31.209 2.68361 31.1834C2.62496 31.1614 2.25835 30.5823 2.00539 30.1132C1.21719 28.6544 0.722273 26.9171 0.619623 25.2678L0.593961 24.8573L2.5663 23.5415C4.14637 22.4896 4.55697 22.2294 4.61562 22.255C4.65595 22.2697 5.64579 22.6802 6.81526 23.1677ZM24.3793 25.2495C24.2547 27.236 23.5985 29.2445 22.5426 30.8828L22.341 31.1944H22.0917C21.5748 31.1907 17.6448 31.0221 17.6265 31.0001C17.5018 30.8755 14.8989 27.6465 14.8989 27.6172C14.8989 27.5769 16.0281 24.0803 16.0464 24.062C16.0501 24.0546 17.0436 23.6405 18.2534 23.1383L20.453 22.2257L22.429 23.5415L24.405 24.861L24.3793 25.2495ZM15.7238 29.644C16.4716 30.564 17.0839 31.3446 17.0912 31.3776C17.1059 31.4619 15.8521 35.8968 15.8044 35.9298C15.7384 35.9701 15.0492 36.1314 14.6056 36.212C13.1979 36.4649 11.7424 36.4576 10.3163 36.1973C9.88375 36.1167 9.19086 35.9481 9.16153 35.9151C9.1432 35.8931 7.89674 31.4436 7.89674 31.3923C7.89674 31.352 9.85442 28.9146 10.4886 28.1596L10.6536 27.969L12.5086 27.9727H14.3673L15.7238 29.644Z" fill="#4169e1"/>
</svg>
