<?xml version="1.0" encoding="iso-8859-1"?>
<!-- Generator: Adobe Illustrator 16.0.0, SVG Export Plug-In . SVG Version: 6.00 Build 0)  -->
<!DOCTYPE svg PUBLIC "-//W3C//DTD SVG 1.1//EN" "http://www.w3.org/Graphics/SVG/1.1/DTD/svg11.dtd">
<svg version="1.1" id="Capa_1" xmlns="http://www.w3.org/2000/svg" xmlns:xlink="http://www.w3.org/1999/xlink" x="0px" y="0px"
	 width="191.613px" height="191.614px" viewBox="0 0 191.613 191.614" style="enable-background:new 0 0 191.613 191.614;"
	 xml:space="preserve">
<g>
	<path d="M65.804,5.585c-0.57-2.445-4.569-2.569-5.053,0c-0.365,1.943-0.492,3.922-0.612,5.899c-2.033-0.625-4.737-0.043-6.675,0.06
		c-0.936,0.049-2.06,0.036-3.207,0.081c-0.288-3.506-0.891-6.963-1.712-9.944c-0.706-2.563-4.711-2.07-4.653,0.63
		c0.078,3.688-3.741,23.854,3.08,23.453c1.182-0.07,2.545-0.813,2.764-2.105c0.021-0.125,0.018-0.218,0.031-0.329
		c0.424-2.043,0.616-4.289,0.657-6.596c1.089,0.038,2.149,0.025,3.04,0.073c1.761,0.093,4.157,0.588,6.107,0.212
		c-0.393,1.915-1.002,3.72-1.331,4.864c-0.327,1.139,0.185,2.565,1.27,3.12C67.613,29.149,66.651,9.225,65.804,5.585z"/>
	<path d="M92.981,4.747c-2.301-2.67-7.693-1.751-10.851-1.64c-4.511,0.159-8.961,0.409-13.422,1.014c-1.774,0.24-1.333,2.67,0,3.16
		c3.286,1.209,6.662,1.55,10.12,1.723c-0.509,4.918-0.764,9.835-0.783,14.791c-0.015,3.824,5.944,3.824,5.929,0
		c-0.019-4.853-0.263-9.668-0.75-14.483c3.15,0.36,7.033,0.886,9.242-0.562C93.907,7.802,94.085,6.029,92.981,4.747z"/>
	<path d="M124.476,19.215c-0.243-4.218-0.571-8.44-0.609-12.668c-0.024-2.81-3.197-3.772-5.163-2.138
		c-3.204,2.667-5.963,5.715-8.603,8.897c-2.056-3.038-4.209-6.012-6.14-9.134c-1.573-2.542-5.617-1.527-5.637,1.526
		c-0.025,4.264-0.246,8.533-0.377,12.796c-0.083,2.698-0.49,5.701,1.374,7.877c0.581,0.679,1.77,0.622,2.36,0
		c1.969-2.074,1.867-5.166,2.069-7.877c0.086-1.15,0.15-2.3,0.227-3.45c1.108,1.611,2.206,3.229,3.235,4.894
		c0.936,1.513,3.486,2.188,4.75,0.611c1.972-2.461,3.974-4.869,6.11-7.155c0.111,1.94,0.239,3.881,0.354,5.818
		c0.14,2.381-0.386,7.484,3.263,7.484C125.48,26.701,124.611,21.572,124.476,19.215z"/>
	<path d="M146.327,21.488c-2.958,0.518-5.922,0.668-8.902,0.711c0.136-6.575,0.407-13.396-2.16-19.511
		c-0.716-1.705-3.566-1.701-3.482,0.471c0.283,7.368-0.281,14.672-0.357,22.036c-0.018,1.621,1.368,2.981,2.979,2.979
		c4.548-0.01,9.016-0.173,13.501-0.968C151.666,26.539,150.063,20.833,146.327,21.488z"/>
	<path d="M159.828,39.732c-18.057,0.021-36.012-0.342-54.084-0.876c-24.188-0.715-48.065,0.567-72.197-2.098
		c-1.292-0.143-1.938,0.933-1.904,2.004c-0.435,0.249-0.791,0.624-0.926,1.142c-2.322,8.808-0.936,19.131-0.351,28.131
		c0.762,11.719,2.287,23.387,3.828,35.024c3.029,22.881,5.258,45.709,7.638,68.635c-0.638,0.384-1.113,1.108-1.053,1.817
		c0.012,0.142,0.024,0.282,0.036,0.425c0.12,1.419,1.709,2.425,2.895,1.943c7.707,1.934,15.401,3.845,23.012,6.148
		c8.535,2.583,16.9,6.987,25.563,8.881c0.176,0.038,0.331,0.02,0.494,0.023c0.267,0.221,0.577,0.394,0.943,0.441
		c9.296,1.213,18.709-2.403,27.311-5.505c7.394-2.666,14.655-5.807,21.711-9.302c2.143-0.471,4.241-1.104,6.295-2.063
		c0.073-0.034,0.129-0.077,0.193-0.115c0.82,0.223,1.78-0.11,2.223-1.229c7.896-19.957,6.548-43.378,6.561-64.42
		c0.007-11.323-0.051-22.64,0.423-33.955c0.439-10.484,2.399-20.584,3.686-30.944c0.037-0.3,0.015-0.563-0.045-0.802
		C162.528,41.625,161.644,39.729,159.828,39.732z M150.414,89.923c0.055,1.149,0.099,2.3,0.131,3.451
		c-0.157,1.578-0.337,3.153-0.533,4.728C150.03,95.368,150.163,92.641,150.414,89.923z M140.466,100.567
		c-0.054,0.349-0.089,0.699-0.146,1.047c-0.083,0.561,0.002,1.063,0.187,1.506c-0.505,1.974-0.999,3.954-1.475,5.941
		C139.476,106.3,139.963,103.464,140.466,100.567z M62.486,149.653c-1.084-8.206-1.835-16.458-2.478-24.725
		c1.716-0.01,3.457-0.167,4.959-0.131c3.561,0.084,7.285,0.479,10.941,0.525c0.084,1.422,0.209,2.841,0.429,4.251
		c0.332,2.125,0.33,4.49,1.701,6.226c0.259,0.328,0.615,0.484,0.989,0.521c0.765,0.89,2.04,1.64,2.776,1.997
		c3.93,1.905,7.862,3.553,11.614,5.804c0.013,0.008,0.026,0.011,0.039,0.02c0.259,0.285,0.627,0.472,1.111,0.439
		c6.518-0.426,14.233-1.951,19.646-5.801c0.328-0.234,0.533-0.52,0.685-0.816c0.009,0.001,0.018,0.003,0.027,0.004
		c1.231,0.05,2.062-1.017,2.145-2.145c0.203-2.747,0.623-5.479,0.857-8.224c0.215-2.521,0.672-6.025-0.796-8.273
		c-0.283-0.434-0.771-0.78-1.3-0.892c-0.144-0.165-0.333-0.3-0.596-0.356c-8.958-1.936-19.118-1.287-28.299-1.926
		c-9.152-0.636-18.478-1.748-27.691-1.471c-1.143-16.204-2.178-32.416-4.681-48.411c2.266,0.443,5.105,0.111,6.917,0.169
		c5.985,0.188,11.979,0.229,17.967,0.224c3.729-0.004,7.493-0.11,11.276-0.258c10.777,0.812,21.915-0.029,32.846-1.032
		c4.816,0.081,9.605,0.35,14.338,0.925c-0.902,3.97-0.883,8.287-0.464,12.553c-0.056,1.457-0.121,2.912-0.211,4.368
		c-20.777,0.177-41.329,1.992-62.159,0.468c-0.973-0.072-1.545,0.7-1.628,1.521c-1.441,1.238-1.648,3.655-1.942,5.438
		c-0.406,2.463-0.688,5.465,0.717,7.67c0.574,0.898,1.694,1.265,2.633,0.899c0.241,0.263,0.59,0.424,1.067,0.371
		c19.931-2.197,39.643-0.308,59.523-0.609c-0.86,6.093-1.83,12.173-2.757,18.25c-1.133,7.427-2.164,14.852-2.833,22.336
		c-0.258,2.882-0.874,6.871-0.583,10.453c-6.192,3.092-12.561,5.808-19.008,8.341c-4.268,1.677-9.593,2.68-14.469,4.144
		c-3.944-2.276-9.327-3.224-13.411-4.867C75.888,155.019,69.319,151.53,62.486,149.653z"/>
</g>
<g>
</g>
<g>
</g>
<g>
</g>
<g>
</g>
<g>
</g>
<g>
</g>
<g>
</g>
<g>
</g>
<g>
</g>
<g>
</g>
<g>
</g>
<g>
</g>
<g>
</g>
<g>
</g>
<g>
</g>
</svg>
