<?xml version="1.0" encoding="iso-8859-1"?>
<!-- Generator: Adobe Illustrator 19.0.0, SVG Export Plug-In . SVG Version: 6.00 Build 0)  -->
<svg version="1.1" id="Capa_1" xmlns="http://www.w3.org/2000/svg" xmlns:xlink="http://www.w3.org/1999/xlink" x="0px" y="0px"
	 viewBox="0 0 490 490" style="enable-background:new 0 0 490 490;" xml:space="preserve">
<g>
	<g>
		<path d="M454.05,150.8l-154-145.6c-3.1-3.1-8.3-5.2-13.5-5.2H50.45c-11.4,0-20.8,9.4-20.8,20.8v448.4c0,11.4,9.4,20.8,20.8,20.8
			h389.1c11.4,0,20.8-9.4,20.8-21.8V165.4C460.35,160.2,458.25,155,454.05,150.8z M306.35,68.3l82.7,78.4h-82.7V68.3z M419.75,449.4
			H70.15V41.6h195.6v124.8c0,11.4,9.4,20.8,20.8,20.8h133.2L419.75,449.4L419.75,449.4z"/>
		<g>
			<path d="M301.85,302.3c-12.3,0-22.4-10-22.4-22.4s10-22.4,22.4-22.4c6.2,0,12,2.5,16.3,7.1c5.7,6,15.1,6.3,21.1,0.6
				c6-5.7,6.3-15.1,0.6-21.1c-9.8-10.5-23.7-16.5-38.1-16.5c-28.8,0-52.3,23.5-52.3,52.3s23.5,52.3,52.3,52.3
				c12.3,0,22.4,10,22.4,22.4s-10,22.4-22.4,22.4c-6.2,0-12-2.5-16.3-7.1c-5.7-6-15.1-6.3-21.1-0.6c-6,5.7-6.3,15.1-0.6,21.1
				c9.8,10.5,23.7,16.5,38.1,16.5c28.8,0,52.3-23.5,52.3-52.3S330.75,302.3,301.85,302.3z"/>
			<path d="M213.05,227.6c-8.3,0-15,6.7-15,15v118.2c0,9-7.3,16.2-16.2,16.2c-9,0-16.2-7.3-16.2-16.2v-11.3c0-8.3-6.7-15-15-15
				s-15,6.7-15,15v11.3c0,25.4,20.7,46.1,46.1,46.1s46.1-20.7,46.1-46.1V242.6C228.05,234.3,221.35,227.6,213.05,227.6z"/>
		</g>
	</g>
</g>
<g>
</g>
<g>
</g>
<g>
</g>
<g>
</g>
<g>
</g>
<g>
</g>
<g>
</g>
<g>
</g>
<g>
</g>
<g>
</g>
<g>
</g>
<g>
</g>
<g>
</g>
<g>
</g>
<g>
</g>
</svg>
