<?xml version="1.0" standalone="no"?>
<!DOCTYPE svg PUBLIC "-//W3C//DTD SVG 20010904//EN"
 "http://www.w3.org/TR/2001/REC-SVG-20010904/DTD/svg10.dtd">
<svg version="1.0" xmlns="http://www.w3.org/2000/svg"
 width="1536.000000pt" height="1536.000000pt" viewBox="0 0 1536.000000 1536.000000"
 preserveAspectRatio="xMidYMid meet">
<metadata>
Created by potrace 1.10, written by Peter Selinger 2001-2011
</metadata>
<g transform="translate(0.000000,1536.000000) scale(0.100000,-0.100000)"
fill="#000000" stroke="none">
<path d="M1733 15348 c2 -12 -9 -15 -133 -36 -30 -6 -82 -18 -115 -27 -33 -9
-77 -20 -97 -24 -21 -5 -43 -13 -50 -18 -7 -6 -24 -13 -38 -16 -114 -25 -356
-155 -526 -281 -102 -76 -304 -278 -380 -380 -126 -170 -256 -412 -281 -526
-3 -14 -10 -31 -16 -38 -5 -7 -13 -29 -18 -50 -4 -20 -15 -64 -24 -97 -16 -58
-24 -97 -45 -216 -14 -76 -14 -10002 0 -10078 21 -119 29 -158 45 -216 9 -33
20 -77 24 -97 5 -21 13 -43 18 -50 6 -7 13 -24 16 -38 25 -114 155 -356 281
-526 76 -102 278 -304 380 -380 170 -126 412 -256 526 -281 14 -3 31 -10 38
-16 7 -5 29 -13 50 -18 20 -4 64 -15 97 -24 62 -17 98 -25 225 -47 111 -19
9949 -19 10060 0 127 22 163 30 225 47 33 9 77 20 97 24 21 5 43 13 50 18 7 6
24 13 38 16 114 25 356 155 526 281 102 76 304 278 380 380 126 170 256 412
281 526 3 14 10 31 16 38 5 7 13 29 18 50 4 20 15 64 24 97 17 62 25 98 47
225 19 111 19 9949 0 10060 -22 127 -30 163 -47 225 -9 33 -20 77 -24 97 -5
21 -13 43 -18 50 -6 7 -13 24 -16 38 -25 114 -155 356 -281 526 -76 102 -278
304 -380 380 -170 126 -412 256 -526 281 -14 3 -31 10 -38 16 -7 5 -29 13 -50
18 -20 4 -64 15 -97 24 -33 9 -85 21 -115 27 -124 21 -135 24 -132 36 1 9
-1120 12 -5008 12 -3888 0 -5009 -3 -5007 -12z m3027 -3583 l0 -795 -792 2
-793 3 -3 780 c-1 429 0 786 3 793 3 9 172 12 795 12 l790 0 0 -795z m-2
-4353 l2 -2772 -792 2 -793 3 -3 2759 c-1 2038 1 2762 9 2773 10 11 144 13
793 11 l781 -3 3 -2773z m2377 2756 c3 -13 6 -79 8 -148 2 -146 -10 -139 137
-84 19 7 76 27 125 44 50 18 104 38 122 46 17 8 38 14 46 14 9 0 28 6 44 14
39 20 124 46 147 46 11 0 42 6 70 14 28 8 69 20 91 26 183 51 584 51 775 0 25
-6 72 -18 105 -27 58 -14 83 -23 178 -59 131 -51 264 -119 334 -170 17 -13 34
-24 38 -24 5 0 72 -47 110 -78 85 -68 200 -170 235 -209 85 -95 145 -165 160
-188 8 -13 41 -61 72 -107 86 -126 210 -361 229 -433 9 -36 27 -88 45 -133 8
-18 14 -44 14 -57 0 -14 6 -42 14 -62 23 -62 45 -207 61 -398 13 -154 15 -422
13 -1865 l-3 -1685 -792 -3 -793 -2 0 1594 c0 1364 -2 1606 -15 1682 -18 111
-42 185 -77 247 -16 26 -28 50 -28 53 0 6 -94 128 -117 152 -22 22 -139 112
-147 112 -3 0 -27 12 -53 28 -105 60 -266 97 -393 89 -215 -14 -431 -121 -556
-275 -21 -26 -46 -55 -54 -64 -32 -36 -98 -183 -123 -273 -7 -28 -12 -550 -16
-1690 l-6 -1650 -784 -3 c-571 -1 -787 1 -797 9 -12 10 -14 454 -14 2756 0
1873 3 2750 10 2764 10 19 30 19 795 19 l785 0 5 -22z"/>
</g>
</svg>
