<?xml version="1.0" standalone="no"?>
<!DOCTYPE svg PUBLIC "-//W3C//DTD SVG 20010904//EN"
 "http://www.w3.org/TR/2001/REC-SVG-20010904/DTD/svg10.dtd">
<svg version="1.0" xmlns="http://www.w3.org/2000/svg"
 width="300.000000pt" height="273.000000pt" viewBox="0 0 300.000000 273.000000"
 preserveAspectRatio="xMidYMid meet">
<metadata>
Created by potrace 1.10, written by Peter Selinger 2001-2011
</metadata>
<g transform="translate(0.000000,273.000000) scale(0.100000,-0.100000)"
fill="#000000" stroke="none">
<path d="M1821 1798 c-57 -15 -89 -48 -202 -205 l-109 -151 34 -34 c35 -35 57
-91 55 -143 -1 -28 -2 -27 -14 13 -21 65 -50 98 -113 129 l-57 28 -336 5
c-313 5 -338 6 -358 24 -26 24 -27 60 -1 86 19 19 33 20 349 20 l329 0 87 111
c47 61 85 112 83 112 -2 1 -205 0 -453 -3 -442 -5 -451 -6 -505 -28 -110 -46
-159 -120 -160 -237 0 -92 27 -148 92 -192 75 -49 122 -56 457 -59 267 -3 306
-6 322 -20 25 -22 24 -66 -1 -89 -19 -17 -46 -19 -377 -19 l-356 -1 -87 -110
-86 -110 398 -3 c584 -4 663 11 749 142 62 95 300 431 307 433 4 2 14 -9 23
-25 9 -15 62 -94 118 -175 55 -81 101 -149 101 -150 0 -1 -82 0 -182 1 l-183
4 -41 -59 c-23 -32 -60 -83 -83 -114 l-41 -57 505 0 505 0 -28 37 c-16 20 -68
95 -117 166 -49 72 -105 153 -124 180 -19 28 -88 129 -154 225 -128 187 -166
233 -210 256 -34 18 -92 23 -136 12z m-1071 -41 c0 5 9 9 20 9 22 0 27 -12 8
-19 -10 -4 -10 -6 -1 -6 6 -1 15 4 18 9 10 16 417 13 435 -2 12 -11 12 -10 0
5 -12 17 -10 18 28 16 22 -2 39 -5 37 -8 -2 -3 44 -4 101 -3 57 2 104 1 104
-3 0 -4 -25 -41 -56 -81 l-57 -74 -113 0 c-69 0 -115 4 -119 11 -5 6 -12 4
-20 -8 -13 -17 -15 -17 -47 1 -28 17 -31 17 -19 3 12 -15 11 -17 -3 -17 -9 0
-16 3 -16 8 0 4 -72 5 -159 2 -152 -5 -161 -6 -185 -29 -34 -32 -36 -91 -3
-126 18 -20 36 -26 87 -31 36 -4 71 -11 78 -17 10 -8 12 -7 10 4 -2 8 2 13 9
12 6 -1 120 -3 253 -3 212 -1 241 -3 236 -16 -4 -10 -1 -14 6 -11 7 2 12 10
10 17 -1 6 1 10 5 8 4 -2 29 -13 54 -25 58 -26 92 -63 114 -120 12 -31 22 -43
34 -41 13 3 16 16 16 70 0 58 -4 72 -32 111 l-31 45 61 87 c34 48 67 95 73
106 6 10 14 16 19 11 4 -4 6 0 3 8 -6 18 68 94 82 85 6 -4 9 -1 8 6 -2 6 3 14
11 17 9 3 11 0 6 -9 -6 -11 -5 -12 6 -1 17 16 82 15 122 -2 53 -22 145 -140
133 -171 -3 -8 -1 -17 4 -20 6 -4 11 4 11 17 1 17 3 18 6 6 2 -10 9 -18 14
-18 6 0 6 -8 -1 -20 -8 -15 -8 -18 3 -15 16 7 181 -231 171 -247 -5 -7 -2 -9
9 -5 9 3 19 2 22 -3 4 -6 1 -10 -5 -10 -6 0 -8 -5 -5 -10 4 -6 11 -8 16 -5 5
4 9 2 9 -3 0 -19 -14 -21 -34 -5 -21 18 -21 18 -3 -4 11 -12 25 -19 32 -17 8
4 47 -43 105 -128 50 -73 87 -134 83 -135 -4 -1 -128 -4 -274 -5 -233 -3 -266
-1 -262 12 4 11 3 12 -4 2 -12 -16 -334 -23 -325 -7 3 6 27 40 55 78 l49 67
178 0 c188 0 209 5 198 48 -8 27 -236 359 -252 365 -7 3 -25 -7 -38 -21 -23
-25 -253 -349 -308 -435 -17 -26 -45 -47 -89 -69 -61 -31 -71 -32 -212 -38
-82 -3 -162 -2 -179 1 -17 4 -33 3 -36 -2 -3 -5 -21 -9 -40 -9 -19 0 -33 3
-31 8 3 4 -101 6 -230 4 l-236 -3 38 48 c21 26 46 56 54 65 9 9 22 24 29 33
13 15 52 21 52 8 0 -5 145 -6 322 -3 336 5 355 8 378 50 26 49 -3 131 -50 140
-12 2 -281 9 -413 10 -20 0 -26 4 -21 13 4 6 -1 5 -12 -4 -15 -12 -79 -20 -79
-10 0 1 -29 3 -65 4 -48 2 -81 10 -123 30 -56 28 -102 76 -94 100 2 6 -3 17
-12 24 -11 8 -12 12 -3 13 6 0 12 5 12 11 0 5 -4 8 -9 5 -5 -3 -8 5 -8 19 0
14 3 23 6 20 4 -2 5 9 3 26 -11 77 78 165 186 182 17 3 30 1 27 -3 -3 -5 -1
-11 4 -14 5 -3 12 6 15 20 6 21 9 24 21 14 8 -7 15 -8 15 -3z"/>
<path d="M1130 1676 c0 -2 9 -6 20 -9 11 -3 18 -1 14 4 -5 9 -34 13 -34 5z"/>
<path d="M1100 1656 c0 -2 7 -9 15 -16 13 -11 14 -10 9 4 -5 14 -24 23 -24 12z"/>
<path d="M860 1364 c0 -8 5 -12 10 -9 6 4 8 11 5 16 -9 14 -15 11 -15 -7z"/>
<path d="M2244 1239 c-3 -6 2 -18 12 -27 17 -16 17 -16 5 0 -7 9 -10 22 -6 28
3 5 4 10 1 10 -3 0 -8 -5 -12 -11z"/>
<path d="M2211 1194 c0 -11 3 -14 6 -6 3 7 2 16 -1 19 -3 4 -6 -2 -5 -13z"/>
<path d="M2250 1170 c-9 -6 -10 -10 -3 -10 6 0 15 5 18 10 8 12 4 12 -15 0z"/>
<path d="M2218 1143 c7 -3 16 -2 19 1 4 3 -2 6 -13 5 -11 0 -14 -3 -6 -6z"/>
<path d="M990 980 c0 -5 5 -10 11 -10 5 0 7 5 4 10 -3 6 -8 10 -11 10 -2 0 -4
-4 -4 -10z"/>
</g>
</svg>
